<svg width="54" height="54" viewBox="0 0 54 54" fill="none" xmlns="http://www.w3.org/2000/svg">
<rect width="54" height="54" rx="5" fill="#9166F0"/>
<path fill-rule="evenodd" clip-rule="evenodd" d="M13.4556 13.4556C14.0631 12.8481 15.048 12.8481 15.6555 13.4556L40.5443 38.3446C41.1518 38.9521 41.1518 39.9368 40.5443 40.5443C39.9368 41.1518 38.9521 41.1518 38.3446 40.5443L13.4556 15.6555C12.8481 15.048 12.8481 14.0631 13.4556 13.4556Z" fill="white"/>
<path fill-rule="evenodd" clip-rule="evenodd" d="M39.4445 17.6667C40.3036 17.6667 41 18.3632 41 19.2223V39.4445C41 40.3036 40.3036 41.0001 39.4445 41.0001H19.2222C18.3631 41.0001 17.6667 40.3036 17.6667 39.4445C17.6667 38.5854 18.3631 37.889 19.2222 37.889H37.8889V19.2223C37.8889 18.3632 38.5854 17.6667 39.4445 17.6667Z" fill="white"/>
</svg>
