<svg width="46" height="46" viewBox="0 0 46 46" fill="none" xmlns="http://www.w3.org/2000/svg">
<g filter="url(#filter0_i_175_59)">
<circle cx="23" cy="23" r="20" fill="#51A0C1"/>
</g>
<circle cx="23" cy="23" r="21.5" stroke="#191919" stroke-width="3"/>
<path fill-rule="evenodd" clip-rule="evenodd" d="M29.1223 16.674C29.0105 16.716 26.2082 17.8099 22.8951 19.1049C19.5819 20.3998 16.4206 21.6353 15.8698 21.8504C14.7356 22.2934 14.5261 22.3927 14.353 22.5694C14.0926 22.8351 14.1678 23.1109 14.5555 23.3121C14.6072 23.3389 15.3183 23.5721 16.1358 23.8304C16.9533 24.0887 17.7997 24.3572 18.0165 24.427L18.4108 24.5539L19.8852 23.6108C24.6235 20.58 26.9647 19.0951 27.0564 19.0625C27.2002 19.0113 27.3252 19.0163 27.3832 19.0756C27.424 19.1172 27.4257 19.1381 27.3933 19.1992C27.367 19.2489 21.0412 25.0759 20.4916 25.5567C20.4864 25.5613 20.4269 26.3678 20.3595 27.349C20.2921 28.3301 20.2325 29.1883 20.2271 29.256L20.2172 29.3792L20.3592 29.3596C20.4373 29.3489 20.5608 29.3078 20.6337 29.2684C20.7066 29.229 21.1972 28.7754 21.7241 28.2605C22.2508 27.7456 22.7003 27.317 22.7228 27.3082C22.7454 27.2994 23.5839 27.9056 24.5863 28.6555C25.5887 29.4053 26.4878 30.0559 26.5843 30.1013C26.8336 30.2185 27.1023 30.2324 27.2938 30.1378C27.4763 30.0476 27.6526 29.7837 27.724 29.4937C27.7513 29.3829 27.9788 28.3079 28.2297 27.1048C28.4805 25.9018 28.7274 24.7235 28.7783 24.4864C28.8293 24.2492 28.983 23.5163 29.1198 22.8577C29.2567 22.199 29.5557 20.7763 29.7842 19.6961C30.1521 17.9571 30.1998 17.6974 30.2001 17.4288C30.2003 17.1664 30.1896 17.1038 30.1207 16.9657C30.0721 16.8683 29.9893 16.7689 29.9083 16.7108C29.7231 16.5778 29.4166 16.5635 29.1223 16.674Z" fill="white"/>
<defs>
<filter id="filter0_i_175_59" x="0" y="0" width="46" height="46" filterUnits="userSpaceOnUse" color-interpolation-filters="sRGB">
<feFlood flood-opacity="0" result="BackgroundImageFix"/>
<feBlend mode="normal" in="SourceGraphic" in2="BackgroundImageFix" result="shape"/>
<feColorMatrix in="SourceAlpha" type="matrix" values="0 0 0 0 0 0 0 0 0 0 0 0 0 0 0 0 0 0 127 0" result="hardAlpha"/>
<feOffset/>
<feGaussianBlur stdDeviation="10"/>
<feComposite in2="hardAlpha" operator="arithmetic" k2="-1" k3="1"/>
<feColorMatrix type="matrix" values="0 0 0 0 1 0 0 0 0 1 0 0 0 0 1 0 0 0 0.25 0"/>
<feBlend mode="normal" in2="shape" result="effect1_innerShadow_175_59"/>
</filter>
</defs>
</svg>
