<svg width="46" height="46" viewBox="0 0 46 46" fill="none" xmlns="http://www.w3.org/2000/svg">
<g filter="url(#filter0_i_175_65)">
<circle cx="23" cy="23" r="20" fill="#4F74A7"/>
</g>
<circle cx="23" cy="23" r="21.5" stroke="#191919" stroke-width="3"/>
<path fill-rule="evenodd" clip-rule="evenodd" d="M31.9166 28.6283C31.6851 28.8767 31.0686 28.9318 31.0686 28.9318H27.7829C27.7829 28.9318 27.3235 29.0341 26.5109 28.2236C25.9527 27.6668 25.379 26.8453 24.9211 26.5038C24.648 26.3003 24.3911 26.4027 24.3911 26.4027C24.3911 26.4027 23.9116 26.4246 23.8611 26.9085C23.7723 27.7584 23.6491 28.2236 23.6491 28.2236C23.6491 28.2236 23.5907 28.5829 23.4372 28.7294C23.2731 28.886 23.0132 28.9318 23.0132 28.9318C23.0132 28.9318 18.4784 29.9074 14.9577 24.4806C12.417 20.5641 12.0959 19.4225 12.0959 19.4225C12.0959 19.4225 11.8804 19.1458 12.0959 18.8155C12.3234 18.4669 12.6259 18.5121 12.6259 18.5121H15.5937C15.5937 18.5121 15.9218 18.5458 16.1236 18.7144C16.3449 18.8991 16.4417 19.2202 16.4417 19.2202C16.4417 19.2202 17.0922 20.7216 17.8196 21.8504C18.8247 23.4102 19.3035 23.2667 19.3035 23.2667C19.3035 23.2667 20.1714 23.0362 19.6215 19.5237C19.5454 19.0378 18.5615 18.9167 18.5615 18.9167C18.5615 18.9167 18.5524 18.4973 18.7735 18.3097C19.0271 18.0945 19.3035 18.1074 19.3035 18.1074C19.3035 18.1074 19.7436 18.034 21.3173 18.0062C22.1129 17.9922 22.6952 18.0062 22.6952 18.0062C22.6952 18.0062 23.0825 17.9939 23.5432 18.3097C23.7661 18.4625 23.7552 18.8156 23.7552 18.8156C23.7552 18.8156 23.6617 21.3506 23.7552 22.6598C23.7954 23.2229 24.0732 23.2668 24.0732 23.2668C24.0732 23.2668 24.3715 23.4872 25.557 21.8505C26.3073 20.8147 26.935 19.3214 26.935 19.3214C26.935 19.3214 27.0903 18.8955 27.2529 18.7144C27.4081 18.5416 27.6769 18.5121 27.6769 18.5121H31.4926C31.4926 18.5121 31.7279 18.5038 31.8106 18.7144C31.8866 18.9078 31.8106 19.3214 31.8106 19.3214C31.8106 19.3214 31.7689 19.7795 31.3867 20.3331C30.484 21.6401 28.7368 23.7725 28.7368 23.7725C28.7368 23.7725 28.6057 24.0621 28.6308 24.2784C28.6586 24.5164 28.8428 24.683 28.8428 24.683C28.8428 24.683 30.1597 25.8203 31.0687 26.8074C31.5597 27.3408 31.9166 28.0214 31.9166 28.0214C31.9166 28.0214 32.1045 28.4265 31.9166 28.6283Z" fill="white"/>
<defs>
<filter id="filter0_i_175_65" x="0" y="0" width="46" height="46" filterUnits="userSpaceOnUse" color-interpolation-filters="sRGB">
<feFlood flood-opacity="0" result="BackgroundImageFix"/>
<feBlend mode="normal" in="SourceGraphic" in2="BackgroundImageFix" result="shape"/>
<feColorMatrix in="SourceAlpha" type="matrix" values="0 0 0 0 0 0 0 0 0 0 0 0 0 0 0 0 0 0 127 0" result="hardAlpha"/>
<feOffset/>
<feGaussianBlur stdDeviation="10"/>
<feComposite in2="hardAlpha" operator="arithmetic" k2="-1" k3="1"/>
<feColorMatrix type="matrix" values="0 0 0 0 1 0 0 0 0 1 0 0 0 0 1 0 0 0 0.4 0"/>
<feBlend mode="normal" in2="shape" result="effect1_innerShadow_175_65"/>
</filter>
</defs>
</svg>
